<?xml version="1.0" standalone="no"?><!DOCTYPE svg PUBLIC "-//W3C//DTD SVG 1.1//EN" "http://www.w3.org/Graphics/SVG/1.1/DTD/svg11.dtd"><svg t="1610677240363" class="icon" viewBox="0 0 1024 1024" version="1.1" xmlns="http://www.w3.org/2000/svg" p-id="9743" width="32" height="32" xmlns:xlink="http://www.w3.org/1999/xlink"><defs><style type="text/css"></style></defs><path d="M942.82666667 869.54666667H81.17333333c-24.32 0-44.05333333-19.73333333-44.05333333-44.05333334s19.73333333-44.05333333 44.05333333-44.05333333h861.65333334c24.32 0 44.05333333 19.73333333 44.05333333 44.05333333s-19.73333333 44.05333333-44.05333333 44.05333334zM81.17333333 794.66666667c-16.96 0-30.82666667 13.86666667-30.82666666 30.82666666s13.86666667 30.82666667 30.82666666 30.82666667h861.65333334c16.96 0 30.82666667-13.86666667 30.82666666-30.82666667s-13.86666667-30.82666667-30.82666666-30.82666666H81.17333333zM382.29333333 480.53333333c-56.10666667 0-101.65333333-45.65333333-101.65333333-101.65333333s45.65333333-101.65333333 101.65333333-101.65333333 101.65333333 45.65333333 101.65333334 101.65333333-45.65333333 101.65333333-101.65333334 101.65333333z m0-190.08c-48.74666667 0-88.42666667 39.68-88.42666666 88.42666667s39.68 88.42666667 88.42666666 88.42666667 88.42666667-39.68 88.42666667-88.42666667-39.68-88.42666667-88.42666667-88.42666667z" fill="#2c2c2c" p-id="9744"></path><path d="M382.29333333 603.41333333c-8.42666667 0-17.17333333-0.53333333-27.41333333-1.81333333l-2.88-0.32-17.06666667-24.32-26.24 13.97333333-2.77333333-0.96c-39.68-14.4-74.34666667-39.57333333-100.37333333-72.85333333l-1.81333334-2.34666667 5.12-29.22666666-28.37333333-8.64-1.28-2.66666667c-14.18666667-30.18666667-21.33333333-62.18666667-21.33333333-95.04 0-8.42666667 0.53333333-17.17333333 1.81333333-27.41333333l0.32-2.88 24.32-17.06666667-13.97333333-26.24 0.96-2.77333333c14.4-39.68 39.57333333-74.34666667 72.85333333-100.37333334l2.34666667-1.81333333 29.22666666 5.12 8.64-28.37333333 2.66666667-1.28c30.18666667-14.18666667 62.18666667-21.33333333 95.04-21.33333334 8.42666667 0 17.17333333 0.53333333 27.41333333 1.81333334l2.88 0.32 17.06666667 24.32 26.24-13.97333334 2.77333333 0.96c39.68 14.4 74.34666667 39.57333333 100.37333334 72.85333334l1.81333333 2.34666666-5.12 29.22666667 28.37333333 8.64 1.28 2.66666667c14.18666667 30.18666667 21.33333333 62.18666667 21.33333334 95.04 0 8.42666667-0.53333333 17.17333333-1.81333334 27.41333333l-0.32 2.88-24.32 17.06666667 13.97333334 26.24-0.96 2.77333333c-14.4 39.68-39.57333333 74.34666667-72.85333334 100.37333333l-2.34666666 1.81333334-29.22666667-5.12-8.64 28.37333333-2.66666667 1.28c-30.18666667 14.08-62.18666667 21.33333333-95.04 21.33333333zM359.36 588.8c8.53333333 0.96 15.89333333 1.38666667 22.93333333 1.38666667 29.97333333 0 59.09333333-6.29333333 86.82666667-18.88l10.34666667-33.92 34.98666666 6.18666666c29.44-23.68 51.94666667-54.61333333 65.28-89.92l-16.64-31.36 29.12-20.37333333c0.96-8.53333333 1.38666667-15.89333333 1.38666667-22.93333333 0-29.97333333-6.29333333-59.09333333-18.88-86.82666667l-33.92-10.34666667 6.18666667-34.98666666c-23.68-29.44-54.61333333-51.94666667-89.92-65.28L425.6 198.18666667l-20.37333333-29.12c-8.53333333-0.96-15.89333333-1.38666667-22.93333334-1.38666667-29.97333333 0-59.09333333 6.29333333-86.82666666 18.88l-10.34666667 33.92-34.98666667-6.18666667c-29.44 23.68-51.94666667 54.61333333-65.28 89.92l16.64 31.36-29.12 20.37333334c-0.96 8.53333333-1.38666667 15.89333333-1.38666666 22.93333333 0 29.97333333 6.29333333 59.09333333 18.88 86.82666667l33.92 10.34666666-6.18666667 34.98666667c23.68 29.44 54.61333333 51.94666667 89.92 65.28l31.36-16.64 20.48 29.12zM719.89333333 681.28c-37.22666667 0-67.52-30.29333333-67.52-67.52S682.66666667 546.13333333 719.89333333 546.13333333s67.52 30.29333333 67.52 67.52-30.29333333 67.62666667-67.52 67.62666667z m0-121.92c-29.97333333 0-54.4 24.42666667-54.4 54.4s24.42666667 54.4 54.4 54.4 54.4-24.42666667 54.4-54.4-24.42666667-54.4-54.4-54.4z" fill="#2c2c2c" p-id="9745"></path><path d="M719.89333333 760c-5.54666667 0-11.2-0.42666667-17.92-1.17333333l-2.88-0.32-10.34666666-14.72-15.89333334 8.42666666-2.77333333-0.96c-25.81333333-9.38666667-48.53333333-25.81333333-65.38666667-47.46666666l-1.81333333-2.34666667 3.09333333-17.70666667-17.17333333-5.22666666-1.28-2.66666667c-9.17333333-19.62666667-13.86666667-40.53333333-13.86666667-61.97333333 0-5.54666667 0.42666667-11.2 1.17333334-17.92l0.32-2.88 14.72-10.34666667-8.42666667-15.89333333 0.96-2.77333334c9.38666667-25.81333333 25.81333333-48.53333333 47.46666667-65.38666666l2.34666666-1.81333334 17.70666667 3.09333334 5.22666667-17.17333334 2.66666666-1.28c19.62666667-9.17333333 40.53333333-13.86666667 61.97333334-13.86666666 5.54666667 0 11.2 0.42666667 17.92 1.17333333l2.88 0.32 10.34666666 14.72 15.89333334-8.42666667 2.77333333 0.96c25.81333333 9.38666667 48.53333333 25.81333333 65.38666667 47.46666667l1.81333333 2.34666667-3.09333333 17.70666666 17.17333333 5.22666667 1.28 2.66666667c9.17333333 19.62666667 13.86666667 40.53333333 13.86666667 61.97333333 0 5.54666667-0.42666667 11.2-1.17333334 17.92l-0.32 2.88-14.72 10.34666667 8.42666667 15.89333333-0.96 2.77333333c-9.38666667 25.81333333-25.81333333 48.53333333-47.46666667 65.38666667l-2.34666666 1.81333333-17.70666667-3.09333333-5.22666667 17.17333333-2.66666666 1.28c-19.73333333 9.17333333-40.53333333 13.86666667-61.97333334 13.86666667z m-13.44-13.97333333c4.90666667 0.53333333 9.17333333 0.74666667 13.33333334 0.74666666 18.56 0 36.58666667-3.84 53.65333333-11.41333333l6.93333333-22.72 23.36 4.16c17.92-14.61333333 31.57333333-33.49333333 39.89333334-55.04l-11.2-21.01333333 19.52-13.65333334c0.53333333-4.90666667 0.74666667-9.17333333 0.74666666-13.33333333 0-18.56-3.84-36.58666667-11.41333333-53.65333333l-22.72-6.93333334 4.16-23.36c-14.61333333-17.92-33.49333333-31.57333333-55.04-39.89333333L746.66666667 501.12l-13.65333334-19.52c-4.90666667-0.53333333-9.17333333-0.74666667-13.44-0.74666667-18.56 0-36.58666667 3.84-53.65333333 11.41333334l-6.93333333 22.72-23.36-4.16c-17.81333333 14.61333333-31.57333333 33.49333333-39.89333334 55.04l11.2 21.01333333-19.52 13.65333333c-0.53333333 4.90666667-0.74666667 9.17333333-0.74666666 13.44 0 18.56 3.84 36.58666667 11.41333333 53.65333334l22.72 6.93333333-4.16 23.36c14.61333333 17.81333333 33.49333333 31.57333333 55.04 39.89333333l21.01333333-11.2 13.76 19.41333334z" fill="#2c2c2c" p-id="9746"></path></svg>