<?xml version="1.0" standalone="no"?><!DOCTYPE svg PUBLIC "-//W3C//DTD SVG 1.1//EN" "http://www.w3.org/Graphics/SVG/1.1/DTD/svg11.dtd"><svg t="1615943561869" class="icon" viewBox="0 0 1024 1024" version="1.1" xmlns="http://www.w3.org/2000/svg" p-id="10048" xmlns:xlink="http://www.w3.org/1999/xlink" width="128" height="128"><defs><style type="text/css"></style></defs><path d="M512 512m-512 0a512 512 0 1 0 1024 0 512 512 0 1 0-1024 0Z" fill="#D3D1D1" p-id="10049"></path><path d="M475.2 804c0 8.8-7.2 16-16 16h-80c-8.8 0-16-7.2-16-16V760c0-8.8 7.2-16 16-16h80c8.8 0 16 7.2 16 16v44z" fill="#FF4848" p-id="10050"></path><path d="M514.4 549.6m-58.4 0a58.4 58.4 0 1 0 116.8 0 58.4 58.4 0 1 0-116.8 0Z" fill="#B7B7B7" p-id="10051"></path><path d="M664 804c0 8.8-7.2 16-16 16H568c-8.8 0-16-7.2-16-16V760c0-8.8 7.2-16 16-16h80c8.8 0 16 7.2 16 16v44z" fill="#75B600" p-id="10052"></path><path d="M512.8 511.2c-8.8-13.6-3.2-32 12.8-39.2l189.6-94.4c16-8 17.6-4.8 4 5.6L553.6 516c-13.6 11.2-32 8.8-40.8-4.8z" fill="#415E6D" p-id="10053"></path><path d="M534.4 531.2c-12 0-22.4-5.6-28.8-16-5.6-8-7.2-18.4-4-28 2.4-9.6 10.4-18.4 20-23.2l189.6-94.4c9.6-4.8 12.8-5.6 15.2-5.6 4 0 7.2 2.4 8.8 5.6 2.4 6.4-4 12-12 18.4L558.4 522.4c-6.4 5.6-15.2 8.8-24 8.8z m147.2-128.8l-152.8 76c-5.6 3.2-10.4 8-11.2 13.6-1.6 4.8-0.8 10.4 2.4 14.4 6.4 9.6 20 11.2 29.6 3.2l132-107.2z" fill="#233E49" p-id="10054"></path><path d="M514.4 512m-58.4 0a58.4 58.4 0 1 0 116.8 0 58.4 58.4 0 1 0-116.8 0Z" fill="#D4D6D6" p-id="10055"></path><path d="M514.4 578.4c-36.8 0-66.4-29.6-66.4-66.4 0-36.8 29.6-66.4 66.4-66.4 36.8 0 66.4 29.6 66.4 66.4 0 36.8-29.6 66.4-66.4 66.4z m0-116.8c-28 0-50.4 22.4-50.4 50.4s22.4 50.4 50.4 50.4 50.4-22.4 50.4-50.4-22.4-50.4-50.4-50.4z" fill="#233E49" p-id="10056"></path><path d="M253.6 724.8c-44.8-56.8-72-128-72-205.6 0-183.2 148.8-332 332-332s332 148.8 332 332c0 77.6-27.2 149.6-72 205.6l76.8 59.2c57.6-72.8 92-164.8 92-264.8 0-236.8-192-428.8-428.8-428.8s-428.8 192-428.8 428.8c0 100 34.4 192 92 264.8l76.8-59.2z" fill="#F99900" p-id="10057"></path><path d="M456 832H376c-13.6 0-24-10.4-24-24v-48c0-13.6 10.4-24 24-24h80c13.6 0 24 10.4 24 24v48c0 13.6-10.4 24-24 24zM376 752c-4.8 0-8 3.2-8 8v48c0 4.8 3.2 8 8 8h80c4.8 0 8-3.2 8-8v-48c0-4.8-3.2-8-8-8H376zM639.2 832H568c-13.6 0-24-10.4-24-24v-48c0-13.6 10.4-24 24-24h71.2c13.6 0 24 10.4 24 24v48c0 13.6-10.4 24-24 24zM568 752c-4.8 0-8 3.2-8 8v48c0 4.8 3.2 8 8 8h71.2c4.8 0 8-3.2 8-8v-48c0-4.8-3.2-8-8-8H568zM782.4 528h-41.6c-4.8 0-8-3.2-8-8s3.2-8 8-8h41.6c4.8 0 8 3.2 8 8s-4 8-8 8zM276 528h-41.6c-4.8 0-8-3.2-8-8s3.2-8 8-8h41.6c4.8 0 8 3.2 8 8s-4 8-8 8zM512 292c-4.8 0-8-3.2-8-8v-41.6c0-4.8 3.2-8 8-8s8 3.2 8 8v41.6c0 4-3.2 8-8 8zM672 360c-2.4 0-4-0.8-5.6-2.4-3.2-3.2-3.2-8 0-11.2l29.6-29.6c3.2-3.2 8-3.2 11.2 0 3.2 3.2 3.2 8 0 11.2l-29.6 29.6c-1.6 1.6-3.2 2.4-5.6 2.4zM344 360c-2.4 0-4-0.8-5.6-2.4L308.8 328c-3.2-3.2-3.2-8 0-11.2 3.2-3.2 8-3.2 11.2 0l29.6 29.6c3.2 3.2 3.2 8 0 11.2-1.6 1.6-4 2.4-5.6 2.4zM763.2 625.6c-0.8 0-1.6 0-3.2-0.8l-39.2-15.2c-4-1.6-6.4-6.4-4.8-10.4 1.6-4 6.4-6.4 10.4-4.8l39.2 15.2c4 1.6 6.4 6.4 4.8 10.4-1.6 3.2-4 5.6-7.2 5.6zM292 438.4c-0.8 0-1.6 0-3.2-0.8l-39.2-15.2c-4-1.6-6.4-6.4-4.8-10.4 1.6-4 6.4-6.4 10.4-4.8l39.2 15.2c4 1.6 6.4 6.4 4.8 10.4-0.8 3.2-4 5.6-7.2 5.6zM417.6 310.4c-3.2 0-6.4-1.6-7.2-4.8l-16-38.4c-1.6-4 0-8.8 4-10.4 4-1.6 8.8 0 10.4 4l16 38.4c1.6 4 0 8.8-4 10.4-1.6 0.8-2.4 0.8-3.2 0.8zM593.6 308c-0.8 0-1.6 0-3.2-0.8-4-1.6-6.4-6.4-4.8-10.4l15.2-39.2c1.6-4 6.4-6.4 10.4-4.8 4 1.6 6.4 6.4 4.8 10.4l-15.2 39.2c-0.8 4-4 5.6-7.2 5.6zM256.8 634.4c-3.2 0-6.4-1.6-7.2-4.8-1.6-4 0-8.8 4-10.4l38.4-16.8c4-1.6 8.8 0 10.4 4 1.6 4 0 8.8-4 10.4l-38.4 16.8c-0.8 0-1.6 0.8-3.2 0.8zM721.6 440.8c-3.2 0-6.4-1.6-7.2-4.8-1.6-4 0-8.8 4-10.4l38.4-16.8c4-1.6 8.8 0 10.4 4 1.6 4 0 8.8-4 10.4L724.8 440c-0.8 0.8-2.4 0.8-3.2 0.8z" fill="#233E49" p-id="10058"></path><path d="M512 187.2V90.4c-234.4 2.4-426.4 193.6-426.4 428.8 0 100 34.4 192 92 264.8l76.8-59.2c-44.8-56.8-72-128-72-205.6 0-181.6 148.8-328.8 329.6-332z" fill="#FBD000" p-id="10059"></path><path d="M891.2 315.2L805.6 360c25.6 47.2 40.8 101.6 40.8 159.2 0 77.6-27.2 149.6-72 205.6l76.8 59.2c57.6-72.8 92-164.8 92-264.8 0-73.6-19.2-143.2-52-204z" fill="#FF4848" p-id="10060"></path><path d="M140.8 315.2L226.4 360c-25.6 47.2-40.8 101.6-40.8 159.2 0 77.6 27.2 149.6 72 205.6L180.8 784c-57.6-72.8-92-164.8-92-264.8 0.8-73.6 19.2-143.2 52-204z" fill="#75B600" p-id="10061"></path><path d="M620 880H368c-4.8 0-8-3.2-8-8s3.2-8 8-8h252c4.8 0 8 3.2 8 8s-3.2 8-8 8zM540 920H368c-4.8 0-8-3.2-8-8s3.2-8 8-8h172c4.8 0 8 3.2 8 8s-3.2 8-8 8z" fill="#ADADAD" p-id="10062"></path><path d="M177.6 792c-2.4 0-4.8-0.8-6.4-3.2-61.6-77.6-93.6-170.4-93.6-269.6 0-240.8 196-436.8 436.8-436.8s436.8 196 436.8 436.8c0 99.2-32 192-93.6 269.6-2.4 3.2-8 4-11.2 1.6l-76.8-59.2c-1.6-1.6-2.4-3.2-3.2-5.6 0-2.4 0-4 1.6-5.6 45.6-57.6 69.6-127.2 69.6-200.8 0-178.4-145.6-324-324-324S189.6 340.8 189.6 519.2c0 73.6 24 143.2 69.6 200.8 1.6 1.6 1.6 4 1.6 5.6 0 2.4-1.6 4-3.2 5.6l-76.8 59.2c0 1.6-1.6 1.6-3.2 1.6z m336.8-693.6c-232 0-420.8 188.8-420.8 420.8 0 92.8 29.6 180 85.6 253.6l64-49.6c-44.8-59.2-68.8-129.6-68.8-204 0-187.2 152.8-340 340-340s340 152.8 340 340c0 74.4-24 144.8-68.8 204l64 49.6c56-73.6 85.6-160.8 85.6-253.6 0-232-188.8-420.8-420.8-420.8z" fill="#233E49" p-id="10063"></path><path d="M548 520c-4.8 0-8-3.2-8-8 0-13.6-11.2-25.6-25.6-25.6-13.6 0-25.6 11.2-25.6 25.6 0 4.8-3.2 8-8 8s-8-3.2-8-8c0-22.4 18.4-41.6 41.6-41.6s41.6 18.4 41.6 41.6c0 4.8-4 8-8 8z" fill="#FFFFFF" p-id="10064"></path><path d="M851.2 720c-1.6 0-2.4 0-4-0.8-4-2.4-4.8-7.2-2.4-11.2 35.2-59.2 53.6-126.4 53.6-196 0-4.8 3.2-8 8-8s8 3.2 8 8c0 72-19.2 142.4-56 204-1.6 2.4-4 4-7.2 4zM122.4 520c-4.8 0-8-3.2-8-8 0-220.8 179.2-400 400-400 138.4 0 265.6 70.4 339.2 188 2.4 4 1.6 8.8-2.4 11.2-4 2.4-8.8 1.6-11.2-2.4C768.8 195.2 647.2 128 514.4 128c-212 0-384 172-384 384 0 4.8-4 8-8 8zM632 776h-56.8c-4.8 0-8-3.2-8-8s3.2-8 8-8H632c4.8 0 8 3.2 8 8s-3.2 8-8 8zM446.4 776h-56.8c-4.8 0-8-3.2-8-8s3.2-8 8-8h56.8c4.8 0 8 3.2 8 8s-3.2 8-8 8z" fill="#FFFFFF" opacity=".5" p-id="10065"></path><path d="M671.2 768.8c0-3.2-3.2-6.4-8-7.2l-15.2-2.4c-4-0.8-8.8-4.8-8.8-8.8l-2.4-15.2c-0.8-4-4-8-7.2-8s-6.4 3.2-7.2 8l-2.4 15.2c-0.8 4-4.8 8.8-8.8 8.8l-15.2 2.4c-4 0.8-8 4-8 7.2s3.2 6.4 8 7.2l15.2 2.4c4 0.8 8.8 4.8 8.8 8.8l2.4 15.2c0.8 4 4 8 7.2 8s6.4-3.2 6.4-8l2.4-16.8c0.8-4 4.8-8 8.8-8.8l14.4-0.8c6.4-1.6 9.6-4 9.6-7.2z" fill="#FFFFFF" p-id="10066"></path></svg>